<?xml version="1.0" encoding="utf-8"?>
<!-- Generator: Adobe Illustrator 21.1.0, SVG Export Plug-In . SVG Version: 6.00 Build 0)  -->
<svg version="1.1" id="Layer_1" xmlns="http://www.w3.org/2000/svg" xmlns:xlink="http://www.w3.org/1999/xlink" x="0px" y="0px"
	 viewBox="0 0 60 60" style="enable-background:new 0 0 60 60;" xml:space="preserve">
<style type="text/css">
	.st0{fill:#ECF0F1;}
	.st1{fill:none;stroke:#0090FF;stroke-width:2;stroke-linecap:round;stroke-linejoin:round;}
	.st2{fill:none;stroke:#8DD1FF;stroke-width:2;stroke-linecap:round;stroke-linejoin:round;}
</style>
<title>bulk_sms_bg</title>
<g id="BG-Circle">
	<circle class="st0" cx="30" cy="30" r="30"/>
</g>
<g id="Bulk">
	<path class="st1" d="M26,42l-4,3v-6h-6c-0.6,0-1-0.4-1-1V18c0-0.6,0.4-1,1-1h28c0.6,0,1,0.4,1,1v12"/>
	<path class="st2" d="M29.5,33c-0.3,0-0.5,0.2-0.5,0.5v10c0,0.3,0.2,0.5,0.5,0.5h6.4l5.3,3v-3h3.2c0.3,0,0.5-0.2,0.5-0.5v-10
		c0-0.3-0.2-0.5-0.5-0.5H29.5z"/>
</g>
</svg>
