<?xml version="1.0" ?><svg viewBox="0 0 100 100" xmlns="http://www.w3.org/2000/svg"><title/><circle cx="50" cy="50" fill="#e6e6e6" r="49.5"/><path d="M17.90775,37.26756h66.75a.625.625,0,0,1,.625.625v25.875a.5.5,0,0,1-.5.5h-66.875a8.125,8.125,0,0,1-8.125-8.125v-10.75A8.125,8.125,0,0,1,17.90775,37.26756Z" fill="#10556b"/><path d="M17.90775,34.26756h66.75a.625.625,0,0,1,.625.625v25.875a.5.5,0,0,1-.5.5h-66.875a8.125,8.125,0,0,1-8.125-8.125v-10.75A8.125,8.125,0,0,1,17.90775,34.26756Z" fill="#2b687f"/><circle cx="74.21725" cy="53.74595" fill="#4d4d4d" r="11.5"/><circle cx="74.21725" cy="53.74595" fill="none" r="6.13333" stroke="#e6e6e6" stroke-miterlimit="10" stroke-width="2"/><circle cx="74.21725" cy="53.74595" fill="none" r="11.5" stroke="#e6e6e6" stroke-miterlimit="10" stroke-width="2"/><path d="M26.31358,49.72768h.02573l1.01152-5.5976h2.67456l-2.17731,9.275H25.39642l-1.52579-5.18613h-.02573L22.3191,53.405H19.876l-2.18589-9.275h2.67456l.99436,5.709h.0256l1.5601-5.709h1.82588Z" fill="#fff"/><path d="M39.043,49.72768h.02573l1.01152-5.5976h2.67456l-2.17731,9.275H38.12586l-1.52579-5.18613h-.02573L35.04854,53.405H32.60546l-2.18589-9.275h2.67456l.99436,5.709h.0256l1.5601-5.709h1.82588Z" fill="#fff"/><path d="M51.7726,49.72768h.02573L52.81,44.13008h2.67442l-2.17718,9.275h-2.4518l-1.52579-5.18613h-.02573L47.77812,53.405H45.335l-2.18589-9.275H45.8237l.99436,5.709h.0256l1.5601-5.709h1.82588Z" fill="#fff"/><path d="M58.69013,53.405H55.80166V50.97054h2.88847Z" fill="#fff"/><path d="M89.90726,66.87155,87.361,69.42181a1.05973,1.05973,0,0,1-1.499.00017l-4.15112-4.14741-2.27974,2.28262a.932.932,0,0,1-1.50832-.27539L73.30225,54.06267a.931.931,0,0,1,1.23063-1.23132L87.758,57.43585a.93233.93233,0,0,1,.27788,1.50841l-2.28145,2.28281,4.15283,4.14721A1.059,1.059,0,0,1,89.90726,66.87155Z" fill="#ffab80"/></svg>