<?xml version="1.0" standalone="no"?>
<!DOCTYPE svg PUBLIC "-//W3C//DTD SVG 20010904//EN"
 "http://www.w3.org/TR/2001/REC-SVG-20010904/DTD/svg10.dtd">
<svg version="1.0" xmlns="http://www.w3.org/2000/svg"
 width="400.000000pt" height="400.000000pt" viewBox="0 0 400.000000 400.000000"
 preserveAspectRatio="xMidYMid meet">
<metadata>
Created by potrace 1.15, written by Peter Selinger 2001-2017
</metadata>
<g transform="translate(0.000000,400.000000) scale(0.100000,-0.100000)"
fill="#000000" stroke="none">
<path d="M277 3148 c-9 -7 -20 -24 -24 -38 -5 -14 -7 -465 -5 -1002 l3 -978
1233 0 1233 0 24 -26 c44 -48 164 -120 240 -145 101 -33 235 -33 330 -1 77 27
158 73 227 131 47 40 51 41 120 41 l72 0 0 92 c0 92 0 94 55 203 30 60 70 159
90 218 36 108 85 319 85 368 0 14 5 30 11 36 7 7 12 68 13 169 1 144 -1 159
-16 162 -10 2 -25 -4 -33 -12 -19 -19 -136 -56 -176 -56 l-28 0 -3 406 -3 406
-24 19 c-23 19 -64 19 -1715 19 -1338 0 -1696 -3 -1709 -12z m3333 -193 l0
-85 -1534 0 c-1389 0 -1534 -1 -1540 -16 -3 -9 -6 -191 -6 -405 l0 -389 898 0
898 0 12 -87 c34 -240 135 -513 256 -696 l18 -27 -1126 0 -1126 0 0 895 0 895
1625 0 1625 0 0 -85z m0 -483 l0 -169 -62 9 c-169 23 -338 108 -369 186 -11
29 -55 31 -64 2 -12 -37 -95 -99 -176 -130 -207 -80 -412 -89 -545 -25 -83 41
-84 40 -84 -75 l0 -100 -720 0 c-482 0 -736 4 -770 11 -106 23 -180 113 -180
221 0 114 61 195 170 229 14 4 649 8 1413 8 l1387 1 0 -168z m-364 -387 c87
-36 163 -147 185 -271 7 -38 19 -73 26 -77 18 -11 19 -437 1 -455 -9 -9 -91
-12 -309 -12 -257 0 -300 2 -313 16 -14 13 -16 47 -16 218 0 188 1 205 20 229
11 14 20 39 20 56 0 46 37 148 71 198 71 103 203 144 315 98z"/>
<path d="M850 2420 l0 -130 25 0 c24 0 25 3 25 59 0 61 16 89 45 77 11 -4 15
-22 15 -71 0 -63 1 -65 25 -65 24 0 25 2 25 74 0 100 -30 131 -88 90 -22 -15
-22 -15 -22 40 0 53 -1 56 -25 56 l-25 0 0 -130z"/>
<path d="M1402 2454 c-12 -8 -22 -10 -22 -5 0 6 -11 11 -25 11 l-25 0 0 -125
0 -125 25 0 c23 0 25 3 25 52 0 40 3 49 12 40 19 -19 73 -14 94 9 29 32 26
115 -5 140 -28 23 -49 24 -79 3z"/>
<path d="M1555 2445 c-14 -13 -25 -29 -25 -35 0 -15 38 -50 54 -50 7 0 19 -6
25 -14 10 -11 8 -16 -8 -21 -10 -3 -31 -3 -46 1 -23 6 -26 4 -23 -12 6 -36
108 -31 128 7 15 26 -9 66 -45 75 -14 3 -25 13 -25 21 0 11 9 14 35 11 28 -3
35 -1 35 13 0 36 -71 39 -105 4z"/>
<path d="M3085 1999 c-67 -39 -103 -102 -112 -194 l-6 -65 177 0 176 0 0 58
c0 71 -35 150 -80 182 -38 27 -123 37 -155 19z"/>
<path d="M3093 1568 c-11 -13 -24 -33 -27 -45 -8 -25 15 -78 38 -86 8 -3 16
-18 18 -34 2 -20 9 -29 26 -31 18 -3 22 1 22 22 0 14 13 37 30 54 38 39 40 83
5 117 -32 33 -84 34 -112 3z"/>
</g>
</svg>
